<svg width="202" height="41" viewBox="0 0 202 41" fill="none" xmlns="http://www.w3.org/2000/svg">
<mask id="mask0_689_527" style="mask-type:alpha" maskUnits="userSpaceOnUse" x="0" y="0" width="41" height="41">
<path d="M13.3833 26.7686H0V40.1519H13.3833V26.7686Z" fill="white"/>
<path d="M13.385 26.7686H10.0303V30.1233H13.385V26.7686Z" fill="white"/>
<path d="M26.7676 26.7668H13.3843V0H26.7676C44.5228 0.71378 44.5049 26.0708 26.7676 26.7668Z" fill="white"/>
<path d="M16.739 23.4111H13.3843V26.7659H16.739V23.4111Z" fill="white"/>
<path d="M13.3818 30.1246C13.3818 30.1246 13.4354 26.7698 16.7366 26.7698C20.0378 26.7698 16.0228 23.2188 16.0228 23.2188L11.9721 28.6435L9.65234 30.5172L13.3818 30.1246Z" fill="white"/>
<path d="M13.3845 23.4086C13.3845 23.4086 13.3845 26.7633 10.0297 26.7633C6.675 26.7633 8.31668 28.6905 8.31668 28.6905L12.2603 27.9232L17.0426 22.9268L13.3845 23.4086Z" fill="white"/>
</mask>
<g mask="url(#mask0_689_527)">
<ellipse cx="-21.9093" cy="32.4739" rx="37.0517" ry="16.9534" fill="url(#paint0_radial_689_527)"/>
<ellipse cx="91.1909" cy="-12.1806" rx="96.2129" ry="30.6133" fill="url(#paint1_radial_689_527)"/>
<g filter="url(#filter0_b_689_527)">
<rect x="-55.8481" y="-3.92188" width="215.917" height="70.3074" fill="url(#paint2_radial_689_527)"/>
</g>
</g>
<path d="M66.8228 24.0432V20.1119H75.8017C77.0122 20.1119 77.9416 19.8355 78.5897 19.2828C79.2474 18.7205 79.5763 17.9152 79.5763 16.8668V16.8383C79.5763 15.7995 79.2474 15.0037 78.5897 14.4509C77.9416 13.8886 77.0122 13.6075 75.8017 13.6075H66.8228V9.57617H76.7167C78.4515 9.57617 79.9432 9.87638 81.1919 10.4768C82.4501 11.0772 83.4176 11.9206 84.0943 13.0071C84.7806 14.084 85.1237 15.342 85.1237 16.7811V16.8097C85.1237 18.2392 84.7806 19.4972 84.0943 20.5837C83.4176 21.6701 82.4501 22.5183 81.1919 23.1282C79.9432 23.7382 78.4515 24.0432 76.7167 24.0432H66.8228ZM64.0776 30.2045V9.57617H69.5536V30.2045H64.0776Z" fill="black"/>
<path d="M92.3298 30.4475C90.9667 30.4475 89.78 30.2617 88.7696 29.89C87.7593 29.5183 86.9777 28.9751 86.4248 28.2603C85.872 27.5455 85.5956 26.6783 85.5956 25.6585V25.6299C85.5956 24.7246 85.8291 23.9383 86.2962 23.2712C86.7727 22.5946 87.521 22.0656 88.5409 21.6844C89.5703 21.3032 90.9048 21.0935 92.5442 21.0554L101.294 20.8696V23.5428L93.4164 23.7287C92.4918 23.7477 91.8198 23.9002 91.4004 24.1861C90.9905 24.4625 90.7856 24.8437 90.7856 25.3297V25.344C90.7856 25.9635 91.0763 26.4257 91.6578 26.7307C92.2392 27.0261 93.0065 27.1739 93.9597 27.1739C94.9033 27.1739 95.7231 27.05 96.4189 26.8022C97.1242 26.5449 97.6675 26.1827 98.0488 25.7157C98.4301 25.2392 98.6207 24.6865 98.6207 24.0575V20.5408C98.6207 19.7307 98.3014 19.1017 97.6628 18.6538C97.0337 18.1963 96.1282 17.9676 94.9462 17.9676C93.9168 17.9676 93.1018 18.1344 92.5013 18.4679C91.9008 18.792 91.5196 19.2208 91.3575 19.7545L91.3146 19.8832H86.3533L86.3819 19.7116C86.563 18.6824 87.0063 17.777 87.7116 16.9955C88.4265 16.2045 89.3987 15.585 90.6283 15.1371C91.8579 14.6892 93.3354 14.4652 95.0606 14.4652C96.9002 14.4652 98.4825 14.7082 99.8074 15.1943C101.132 15.6708 102.147 16.3617 102.853 17.2671C103.568 18.163 103.925 19.2399 103.925 20.4979V30.2045H98.6207V27.7028H98.5349C98.1727 28.2746 97.6866 28.7654 97.0766 29.1752C96.4761 29.585 95.7707 29.8995 94.9605 30.1187C94.1599 30.3379 93.2829 30.4475 92.3298 30.4475Z" fill="black"/>
<path d="M115.363 30.5762C113.447 30.5762 111.808 30.3808 110.445 29.9901C109.082 29.5898 108.019 29.0227 107.256 28.2889C106.503 27.5551 106.07 26.6735 105.955 25.6442L105.941 25.5156L111.103 25.5299L111.131 25.6299C111.284 26.2304 111.717 26.6735 112.432 26.9594C113.147 27.2453 114.138 27.3883 115.406 27.3883C116.15 27.3883 116.774 27.3263 117.279 27.2024C117.784 27.0786 118.17 26.9022 118.437 26.6735C118.704 26.4448 118.838 26.1636 118.838 25.8301V25.8158C118.838 25.3965 118.652 25.0867 118.28 24.8866C117.918 24.6769 117.27 24.5197 116.335 24.4148L112.175 24.0146C110.879 23.8716 109.801 23.6095 108.944 23.2283C108.095 22.8376 107.457 22.3325 107.028 21.713C106.608 21.084 106.399 20.3502 106.399 19.5115V19.4829C106.399 18.4346 106.732 17.534 107.399 16.7811C108.067 16.0282 109.025 15.4564 110.273 15.0656C111.531 14.6653 113.037 14.4652 114.791 14.4652C116.621 14.4652 118.175 14.6701 119.452 15.0799C120.739 15.4802 121.73 16.0472 122.426 16.7811C123.122 17.5054 123.508 18.3679 123.584 19.3685L123.599 19.5115H118.723L118.709 19.4257C118.614 18.873 118.232 18.4393 117.565 18.1248C116.898 17.8103 115.992 17.6531 114.849 17.6531C114.143 17.6531 113.543 17.715 113.047 17.8389C112.561 17.9628 112.189 18.1439 111.932 18.3822C111.674 18.6109 111.546 18.8873 111.546 19.2113V19.2256C111.546 19.4924 111.627 19.7212 111.789 19.9118C111.951 20.0928 112.213 20.2406 112.575 20.3549C112.937 20.4693 113.419 20.5598 114.019 20.6265L118.28 21.0268C120.358 21.2365 121.85 21.6987 122.755 22.4135C123.661 23.1282 124.113 24.1099 124.113 25.3583V25.3726C124.113 26.4591 123.765 27.3931 123.07 28.1745C122.374 28.9465 121.373 29.5421 120.067 29.9615C118.761 30.3713 117.193 30.5762 115.363 30.5762Z" fill="black"/>
<path d="M134.894 30.5762C132.978 30.5762 131.338 30.3808 129.975 29.9901C128.612 29.5898 127.55 29.0227 126.787 28.2889C126.034 27.5551 125.6 26.6735 125.486 25.6442L125.472 25.5156L130.633 25.5299L130.662 25.6299C130.814 26.2304 131.248 26.6735 131.963 26.9594C132.678 27.2453 133.669 27.3883 134.937 27.3883C135.68 27.3883 136.304 27.3263 136.81 27.2024C137.315 27.0786 137.701 26.9022 137.968 26.6735C138.235 26.4448 138.368 26.1636 138.368 25.8301V25.8158C138.368 25.3965 138.182 25.0867 137.811 24.8866C137.448 24.6769 136.8 24.5197 135.866 24.4148L131.705 24.0146C130.409 23.8716 129.332 23.6095 128.474 23.2283C127.626 22.8376 126.987 22.3325 126.558 21.713C126.139 21.084 125.929 20.3502 125.929 19.5115V19.4829C125.929 18.4346 126.263 17.534 126.93 16.7811C127.597 16.0282 128.555 15.4564 129.804 15.0656C131.062 14.6653 132.568 14.4652 134.322 14.4652C136.152 14.4652 137.706 14.6701 138.983 15.0799C140.27 15.4802 141.261 16.0472 141.957 16.7811C142.653 17.5054 143.039 18.3679 143.115 19.3685L143.129 19.5115H138.254L138.239 19.4257C138.144 18.873 137.763 18.4393 137.096 18.1248C136.428 17.8103 135.523 17.6531 134.379 17.6531C133.674 17.6531 133.073 17.715 132.578 17.8389C132.091 17.9628 131.72 18.1439 131.462 18.3822C131.205 18.6109 131.076 18.8873 131.076 19.2113V19.2256C131.076 19.4924 131.157 19.7212 131.319 19.9118C131.481 20.0928 131.744 20.2406 132.106 20.3549C132.468 20.4693 132.949 20.5598 133.55 20.6265L137.811 21.0268C139.888 21.2365 141.38 21.6987 142.286 22.4135C143.191 23.1282 143.644 24.1099 143.644 25.3583V25.3726C143.644 26.4591 143.296 27.3931 142.6 28.1745C141.904 28.9465 140.904 29.5421 139.598 29.9615C138.292 30.3713 136.724 30.5762 134.894 30.5762Z" fill="black"/>
<path d="M155.025 30.5762C152.976 30.5762 151.207 30.2617 149.72 29.6327C148.243 29.0037 147.104 28.0935 146.303 26.9022C145.503 25.7014 145.102 24.2576 145.102 22.5707V22.5564C145.102 20.8886 145.507 19.4496 146.318 18.2392C147.137 17.0289 148.276 16.0949 149.735 15.4373C151.193 14.7797 152.89 14.4557 154.825 14.4652C156.798 14.4747 158.504 14.8178 159.943 15.4945C161.383 16.1711 162.488 17.1242 163.26 18.3536C164.042 19.5734 164.433 21.0078 164.433 22.6565V23.6429H147.833V20.9125H161.016L159.471 22.9138V21.956C159.471 21.1078 159.29 20.3835 158.928 19.7831C158.575 19.1732 158.061 18.7062 157.384 18.3822C156.707 18.0581 155.892 17.8961 154.939 17.8961C153.948 17.8961 153.099 18.0581 152.394 18.3822C151.689 18.6967 151.145 19.1684 150.764 19.7974C150.392 20.4169 150.207 21.1841 150.207 22.099V22.8995C150.207 23.9193 150.421 24.7436 150.85 25.3726C151.279 26.0016 151.865 26.4591 152.609 26.745C153.362 27.0309 154.224 27.1739 155.196 27.1739C155.826 27.1739 156.412 27.1024 156.955 26.9594C157.498 26.8165 157.965 26.6163 158.356 26.359C158.757 26.1017 159.057 25.7967 159.257 25.4441L159.3 25.3583H164.218L164.175 25.5156C163.956 26.2875 163.58 26.988 163.046 27.617C162.522 28.2365 161.864 28.7702 161.073 29.2181C160.282 29.6565 159.376 29.9901 158.356 30.2188C157.336 30.457 156.226 30.5762 155.025 30.5762Z" fill="black"/>
<path d="M175.327 30.5762C173.412 30.5762 171.772 30.3808 170.409 29.9901C169.046 29.5898 167.983 29.0227 167.221 28.2889C166.468 27.5551 166.034 26.6735 165.92 25.6442L165.905 25.5156L171.067 25.5299L171.095 25.6299C171.248 26.2304 171.682 26.6735 172.396 26.9594C173.111 27.2453 174.103 27.3883 175.37 27.3883C176.114 27.3883 176.738 27.3263 177.243 27.2024C177.749 27.0786 178.135 26.9022 178.401 26.6735C178.668 26.4448 178.802 26.1636 178.802 25.8301V25.8158C178.802 25.3965 178.616 25.0867 178.244 24.8866C177.882 24.6769 177.234 24.5197 176.3 24.4148L172.139 24.0146C170.843 23.8716 169.766 23.6095 168.908 23.2283C168.06 22.8376 167.421 22.3325 166.992 21.713C166.573 21.084 166.363 20.3502 166.363 19.5115V19.4829C166.363 18.4346 166.696 17.534 167.364 16.7811C168.031 16.0282 168.989 15.4564 170.238 15.0656C171.496 14.6653 173.002 14.4652 174.756 14.4652C176.586 14.4652 178.139 14.6701 179.417 15.0799C180.703 15.4802 181.695 16.0472 182.391 16.7811C183.086 17.5054 183.472 18.3679 183.549 19.3685L183.563 19.5115H178.687L178.673 19.4257C178.578 18.873 178.197 18.4393 177.529 18.1248C176.862 17.8103 175.957 17.6531 174.813 17.6531C174.107 17.6531 173.507 17.715 173.011 17.8389C172.525 17.9628 172.153 18.1439 171.896 18.3822C171.639 18.6109 171.51 18.8873 171.51 19.2113V19.2256C171.51 19.4924 171.591 19.7212 171.753 19.9118C171.915 20.0928 172.177 20.2406 172.539 20.3549C172.902 20.4693 173.383 20.5598 173.984 20.6265L178.244 21.0268C180.322 21.2365 181.814 21.6987 182.719 22.4135C183.625 23.1282 184.078 24.1099 184.078 25.3583V25.3726C184.078 26.4591 183.73 27.3931 183.034 28.1745C182.338 28.9465 181.337 29.5421 180.031 29.9615C178.726 30.3713 177.158 30.5762 175.327 30.5762Z" fill="black"/>
<path d="M192.43 6V7.37H190.57V13.02H188.86V7.37H187V6H192.43Z" fill="black"/>
<path d="M201.238 6V13.02H199.528V8.81L197.958 13.02H196.578L194.998 8.8V13.02H193.288V6H195.308L197.278 10.86L199.228 6H201.238Z" fill="black"/>
<defs>
<filter id="filter0_b_689_527" x="-586.854" y="-534.927" width="1277.93" height="1132.32" filterUnits="userSpaceOnUse" color-interpolation-filters="sRGB">
<feFlood flood-opacity="0" result="BackgroundImageFix"/>
<feGaussianBlur in="BackgroundImageFix" stdDeviation="265.503"/>
<feComposite in2="SourceAlpha" operator="in" result="effect1_backgroundBlur_689_527"/>
<feBlend mode="normal" in="SourceGraphic" in2="effect1_backgroundBlur_689_527" result="shape"/>
</filter>
<radialGradient id="paint0_radial_689_527" cx="0" cy="0" r="1" gradientUnits="userSpaceOnUse" gradientTransform="translate(-58.8973 49.4273) rotate(-17.0562) scale(67.0483 98.6538)">
<stop stop-color="#FF8024"/>
<stop offset="0.0001" stop-color="#FF9900"/>
<stop offset="0.194146" stop-color="#F85E3C"/>
<stop offset="0.479355" stop-color="#B32471"/>
<stop offset="0.76" stop-color="#9B30B3"/>
<stop offset="1" stop-color="#7130B0"/>
</radialGradient>
<radialGradient id="paint1_radial_689_527" cx="0" cy="0" r="1" gradientUnits="userSpaceOnUse" gradientTransform="translate(-4.85662 18.4327) rotate(-12.0434) scale(170.194 182.237)">
<stop stop-color="#FF8024"/>
<stop offset="0.0001" stop-color="#FF9900"/>
<stop offset="0.194146" stop-color="#F85E3C"/>
<stop offset="0.479355" stop-color="#B32471"/>
<stop offset="0.76" stop-color="#9B30B3"/>
<stop offset="1" stop-color="#7130B0"/>
</radialGradient>
<radialGradient id="paint2_radial_689_527" cx="0" cy="0" r="1" gradientUnits="userSpaceOnUse" gradientTransform="translate(-55.6626 66.3855) rotate(-12.3164) scale(191.168 209.05)">
<stop stop-color="#FF8024"/>
<stop offset="0.0001" stop-color="#FF9900"/>
<stop offset="0.194146" stop-color="#F85E3C"/>
<stop offset="0.479355" stop-color="#B32471"/>
<stop offset="0.76" stop-color="#9B30B3"/>
<stop offset="1" stop-color="#7130B0"/>
</radialGradient>
</defs>
</svg>
